<svg xmlns="http://www.w3.org/2000/svg" width="40" height="40" viewBox="0 0 40 40">
  <g>
    <rect width="40" height="40" x="0" y="0" fill="rgb(200,200,200)"/>
    <path fill="rgb(0,0,0)" fill-rule="evenodd" d="M22.3333349 22.33330673c1.83972221-1.83971497 4.82695837-1.8397091 6.66667334.0000131l7.66669411 7.66672426c1.83971497 1.8397222 1.8397091 4.82695836-.0000131 6.66667333-1.83972221 1.83971497-4.82695837 1.8397091-6.66667334-.0000131l-7.66669411-7.66672426c-1.83971497-1.8397222-1.8397091-4.82695836.0000131-6.66667333z"/>
    <path fill="rgb(0,0,0)" fill-rule="evenodd" d="M31.5 16.5c0-7.72681046-6.27319336-14-14-14s-14 6.27318954-14 14 6.27319336 14 14 14 14-6.27318954 14-14zm-7.5 0c0-3.58744812-2.91255188-6.5-6.5-6.5S11 12.91255188 11 16.5s2.91255188 6.5 6.5 6.5 6.5-2.91255188 6.5-6.5z"/>
  </g>
</svg>
