<svg xmlns="http://www.w3.org/2000/svg" width="40" height="40" viewBox="0 0 40 40">
  <g>
    <path fill="rgb(0,0,0)" fill-rule="evenodd" d="M36.66670801 3.33334135c1.83971808 1.8397191 1.83971724 4.82695526-.00000187 6.66667333L10.00000532 36.66670053c-1.8397191 1.83971807-4.82695526 1.83971723-6.66667333-.00000188-1.83971808-1.8397191-1.83971724-4.82695526.00000187-6.66667333L30.00003468 3.33333947c1.8397191-1.83971807 4.82695526-1.83971723 6.66667333.00000188z"/>
    <path fill="rgb(0,0,0)" fill-rule="evenodd" d="M3.33336943 3.3333039c1.8397222-1.83971497 4.82695836-1.8397091 6.66667333.0000131l26.66664092 26.66674576c1.83971497 1.8397222 1.8397091 4.82695837-.00001311 6.66667334-1.8397222 1.83971497-4.82695836 1.8397091-6.66667333-.0000131L3.33335632 9.99997723c-1.83971497-1.8397222-1.8397091-4.82695837.00001311-6.66667334z"/>
  </g>
</svg>
