<svg xmlns="http://www.w3.org/2000/svg" width="40" height="40" viewBox="0 0 40 40">
  <g>
    <rect width="40" height="40" x="0" y="0" fill="rgb(200,200,200)"/>
    <path fill="rgb(0,0,0)" fill-rule="evenodd" d="M5 10h30l-1 25c0 1.65574646-1.34423828 3-3 3H9c-1.6557312 0-3-1.34425354-3-3L5 10zm9 5.0000019C14 13.89617063 13.1038208 13 12 13s-2 .89617062-2 2.0000019v16.00001527c0 1.10383415.8961792 2.0000019 2 2.0000019s2-.89616775 2-2.0000019V15.0000019zM20 13c1.1038208 0 2 .89617062 2 2.0000019v16.00001527c0 1.10383415-.8961792 2.0000019-2 2.0000019s-2-.89616775-2-2.0000019V15.0000019C18 13.8961706 18.8961792 13 20 13zm10.00003052 2.0000019c0-1.10383128-.8961792-2.0000019-2-2.0000019s-2 .89617062-2 2.0000019v16.00001527c0 1.10383415.8961792 2.0000019 2 2.0000019s2-.89616775 2-2.0000019V15.0000019z"/>
    <path fill="rgb(0,0,0)" fill-rule="evenodd" d="M38 7.00001011c-9.3e-7 1.65574507-1.34425661 2.99999924-3.00000168 2.99999831l-30-.00001684C3.34425324 9.99999065 1.99999907 8.65573496 2 6.99998989c9.3e-7-1.65574507 1.34425661-2.99999924 3.00000168-2.99999831l30 .00001684C36.65574676 4.00000935 38.00000093 5.34426504 38 7.00001011z"/>
    <path fill="rgb(0,0,0)" fill-rule="evenodd" d="M23 5.00000168C22.99999907 6.65574676 21.65574339 8.00000093 19.99999832 8 18.34425324 7.99999907 16.99999907 6.65574339 17 4.99999832 17.00000093 3.34425324 18.34425661 1.99999907 20.00000168 2 21.65574676 2.00000093 23.00000093 3.34425661 23 5.00000168z"/>
  </g>
</svg>
