<svg xmlns="http://www.w3.org/2000/svg" width="40" height="40" viewBox="0 0 40 40">
  <g>
    <rect width="40" height="40" x="0" y="0" fill="rgb(200,200,200)"/>
    <path fill="rgb(0,0,0)" fill-rule="evenodd" d="M38.1381134 19.78512492c-.00000146 2.60175498-2.1122976 4.71404873-4.71405257 4.71404727l-26.58733507-.00001493c-2.60175498-.00000146-4.71404874-2.1122976-4.71404728-4.71405257.00000146-2.60175498 2.1122976-4.71404873 4.71405257-4.71404727l26.58733508.00001493c2.60175497.00000146 4.71404873 2.1122976 4.71404727 4.71405257z"/>
    <path fill="rgb(0,0,0)" fill-rule="evenodd" d="M19.71404992 2c2.60175498 0 4.71404992 2.11229494 4.71404992 4.71404992v26.57190016C24.42809984 35.88770506 22.3158049 38 19.71404992 38S15 35.88770506 15 33.28595008V6.71404992C15 4.11229494 17.11229494 2 19.71404992 2z"/>
  </g>
</svg>
