<svg xmlns="http://www.w3.org/2000/svg" width="40" height="40" viewBox="0 0 40 40">
  <g>
    
    <path fill="rgb(0,0,0)" fill-rule="evenodd" d="M38.01543492 33.00001011c-9.3e-7 1.65574508-1.34425661 2.99999925-3.00000169 2.99999832l-30.01543491-.00001686C3.34425324 35.99999064 1.99999907 34.65573496 2 32.9999899c9.3e-7-1.65574508 1.34425661-2.99999925 3.00000168-2.99999832l30.01543492.00001686c1.65574508 9.3e-7 2.99999925 1.34425661 2.99999832 3.00000168z"/>
    <path fill="rgb(0,0,0)" fill-rule="evenodd" d="M26.01543492 20.00000674c-9.3e-7 1.65574508-1.34425661 2.99999925-3.00000169 2.99999832l-18.01543491-.00001012C3.34425324 22.99999401 1.99999907 21.65573833 2 19.99999326c9.3e-7-1.65574508 1.34425661-2.99999925 3.00000168-2.99999832l18.01543492.00001012c1.65574508 9.3e-7 2.99999925 1.34425661 2.99999832 3.00000168z"/>
    <path fill="rgb(0,0,0)" fill-rule="evenodd" d="M38.01543492 7.00001011c-9.3e-7 1.65574508-1.34425661 2.99999925-3.00000169 2.99999832L4.99999832 9.99999157C3.34425324 9.99999064 1.99999907 8.65573496 2 6.9999899c9.3e-7-1.65574508 1.34425661-2.99999925 3.00000168-2.99999832l30.01543492.00001686c1.65574508 9.3e-7 2.99999925 1.34425661 2.99999832 3.00000168z"/>
  </g>
</svg>
