<svg xmlns="http://www.w3.org/2000/svg" width="40" height="40" viewBox="0 0 40 40">
  <g>
    <rect width="40" height="40" x="0" y="0" fill="rgb(200,200,200)"/>
    <g>
      <path fill="rgb(0,0,0)" fill-rule="evenodd" d="M5.83708686 9.33331964c1.83972221-1.83971497 4.82695837-1.8397091 6.66667334.0000131L23.16292624 19.9925407c1.83971497 1.8397222 1.8397091 4.82695836-.0000131 6.66667334-1.83972221 1.83971497-4.82695837 1.8397091-6.66667334-.00001311L5.83707376 15.99999297c-1.83971497-1.8397222-1.8397091-4.82695836.0000131-6.66667333z"/>
      <path fill="rgb(0,0,0)" fill-rule="evenodd" d="M34.1629326 9.3333391c1.83971807 1.8397191 1.83971723 4.82695526-.00000187 6.66667333l-10.65919 10.659184c-1.8397191 1.83971808-4.82695526 1.83971724-6.66667333-.00000187-1.83971807-1.8397191-1.83971723-4.82695526.00000187-6.66667333l10.65919-10.659184c1.8397191-1.83971807 4.82695526-1.83971724 6.66667333.00000187z"/>
    </g>
    <path fill="rgb(0,0,0)" fill-rule="evenodd" d="M20 2c2.60175498 0 4.71404992 2.11229494 4.71404992 4.71404992V18.8561797c0 2.60175498-2.11229494 4.71404992-4.71404992 4.71404992s-4.71404992-2.11229494-4.71404992-4.71404992V6.71404992C15.28595008 4.11229494 17.39824502 2 20 2z"/>
    <path fill="rgb(0,0,0)" fill-rule="evenodd" d="M38 32.00000983c-.00000155 2.75957512-2.24042769 4.99999874-5.0000028 4.9999972l-25-.00001405C5.24042206 36.99999143 2.99999844 34.75956529 3 31.99999018c.00000155-2.75957513 2.24042769-4.99999875 5.0000028-4.9999972l25 .00001404c2.75957513.00000155 4.99999875 2.24042769 4.9999972 5.0000028z"/>
  </g>
</svg>
