<svg xmlns="http://www.w3.org/2000/svg" xmlns:xlink="http://www.w3.org/1999/xlink">

  <!-- X -->
  <symbol id="icon-x" viewBox="0 0 40 40">
    <path fill-rule="evenodd" d="M36.66670801 3.33334135c1.83971808 1.8397191 1.83971724 4.82695526-.00000187 6.66667333L10.00000532 36.66670053c-1.8397191 1.83971807-4.82695526 1.83971723-6.66667333-.00000188-1.83971808-1.8397191-1.83971724-4.82695526.00000187-6.66667333L30.00003468 3.33333947c1.8397191-1.83971807 4.82695526-1.83971723 6.66667333.00000188z"/>
    <path  fill-rule="evenodd" d="M3.33336943 3.3333039c1.8397222-1.83971497 4.82695836-1.8397091 6.66667333.0000131l26.66664092 26.66674576c1.83971497 1.8397222 1.8397091 4.82695837-.00001311 6.66667334-1.8397222 1.83971497-4.82695836 1.8397091-6.66667333-.0000131L3.33335632 9.99997723c-1.83971497-1.8397222-1.8397091-4.82695837.00001311-6.66667334z"/>
  </symbol>

  <!-- V -->
  <symbol id="icon-v" viewBox="0 0 40 40">
    <path  fill-rule="evenodd" d="M5.18496016 13.1965552c2.389865-1.37978263 5.45034062-.55972391 6.83012325 1.8301411l9.99996433 17.32052866c1.37978264 2.389865.55972392 5.45034061-1.83014108 6.83012325-2.389865 1.37978264-5.45034061.55972392-6.83012325-1.83014108L3.35481908 20.02667846c-1.37978264-2.389865-.55972392-5.45034061 1.83014108-6.83012325z"/>
    <path  fill-rule="evenodd" d="M35.33013026 4.50000187c2.3898619 1.37978801 3.20991375 4.44026546 1.83012574 6.83012736l-15.00000486 25.9807593c-1.37978801 2.38986191-4.44026546 3.20991376-6.83012736 1.83012575-2.3898619-1.379788-3.20991375-4.44026546-1.83012574-6.83012736L28.5000029 6.33012762c1.379788-2.3898619 4.44026546-3.20991376 6.83012736-1.83012575z"/>
  </symbol>

  <!-- delete -->
  <symbol id="icon-delete" viewBox="0 0 40 40">
    <path fill-rule="evenodd" d="M5 10h30l-1 25c0 1.65574646-1.34423828 3-3 3H9c-1.6557312 0-3-1.34425354-3-3L5 10zm9 5.0000019C14 13.89617063 13.1038208 13 12 13s-2 .89617062-2 2.0000019v16.00001527c0 1.10383415.8961792 2.0000019 2 2.0000019s2-.89616775 2-2.0000019V15.0000019zM20 13c1.1038208 0 2 .89617062 2 2.0000019v16.00001527c0 1.10383415-.8961792 2.0000019-2 2.0000019s-2-.89616775-2-2.0000019V15.0000019C18 13.8961706 18.8961792 13 20 13zm10.00003052 2.0000019c0-1.10383128-.8961792-2.0000019-2-2.0000019s-2 .89617062-2 2.0000019v16.00001527c0 1.10383415.8961792 2.0000019 2 2.0000019s2-.89616775 2-2.0000019V15.0000019z"/>
    <path fill-rule="evenodd" d="M38 7.00001011c-9.3e-7 1.65574507-1.34425661 2.99999924-3.00000168 2.99999831l-30-.00001684C3.34425324 9.99999065 1.99999907 8.65573496 2 6.99998989c9.3e-7-1.65574507 1.34425661-2.99999924 3.00000168-2.99999831l30 .00001684C36.65574676 4.00000935 38.00000093 5.34426504 38 7.00001011z"/>
    <path fill-rule="evenodd" d="M23 5.00000168C22.99999907 6.65574676 21.65574339 8.00000093 19.99999832 8 18.34425324 7.99999907 16.99999907 6.65574339 17 4.99999832 17.00000093 3.34425324 18.34425661 1.99999907 20.00000168 2 21.65574676 2.00000093 23.00000093 3.34425661 23 5.00000168z"/>
  </symbol>

  <!-- download -->
  <symbol id="icon-download" viewBox="0 0 40 40">
    <g>
      <path fill-rule="evenodd" d="M5.83708686 9.33331964c1.83972221-1.83971497 4.82695837-1.8397091 6.66667334.0000131L23.16292624 19.9925407c1.83971497 1.8397222 1.8397091 4.82695836-.0000131 6.66667334-1.83972221 1.83971497-4.82695837 1.8397091-6.66667334-.00001311L5.83707376 15.99999297c-1.83971497-1.8397222-1.8397091-4.82695836.0000131-6.66667333z"/>
      <path fill-rule="evenodd" d="M34.1629326 9.3333391c1.83971807 1.8397191 1.83971723 4.82695526-.00000187 6.66667333l-10.65919 10.659184c-1.8397191 1.83971808-4.82695526 1.83971724-6.66667333-.00000187-1.83971807-1.8397191-1.83971723-4.82695526.00000187-6.66667333l10.65919-10.659184c1.8397191-1.83971807 4.82695526-1.83971724 6.66667333.00000187z"/>
    </g>
    <path fill-rule="evenodd" d="M20 2c2.60175498 0 4.71404992 2.11229494 4.71404992 4.71404992V18.8561797c0 2.60175498-2.11229494 4.71404992-4.71404992 4.71404992s-4.71404992-2.11229494-4.71404992-4.71404992V6.71404992C15.28595008 4.11229494 17.39824502 2 20 2z"/>
    <path fill-rule="evenodd" d="M38 32.00000983c-.00000155 2.75957512-2.24042769 4.99999874-5.0000028 4.9999972l-25-.00001405C5.24042206 36.99999143 2.99999844 34.75956529 3 31.99999018c.00000155-2.75957513 2.24042769-4.99999875 5.0000028-4.9999972l25 .00001404c2.75957513.00000155 4.99999875 2.24042769 4.9999972 5.0000028z"/>
  </symbol>


  <!-- edit -->
  <symbol id="icon-edit" viewBox="0 0 40 40">
    <path fill-rule="evenodd" d="M34.66620768 5.33316791c1.83971807 1.8397191 1.83971723 4.82695527-.00000187 6.66667334l-21.99953697 21.9995246-6.66667146-6.6666752 21.99953697-21.9995246c1.8397191-1.83971808 4.82695526-1.83971724 6.66667333.00000186z"/>
    <path fill-rule="evenodd" d="M3.99823326 28.99936879L3 36.5l7.49823326-1.00063121-6.5-6.5z"/>
  </symbol>


  <!-- hamburger -->
  <symbol id="icon-hamburger" viewBox="0 0 40 40">
    <path fill-rule="evenodd" d="M38.01543492 33.00001011c-9.3e-7 1.65574508-1.34425661 2.99999925-3.00000169 2.99999832l-30.01543491-.00001686C3.34425324 35.99999064 1.99999907 34.65573496 2 32.9999899c9.3e-7-1.65574508 1.34425661-2.99999925 3.00000168-2.99999832l30.01543492.00001686c1.65574508 9.3e-7 2.99999925 1.34425661 2.99999832 3.00000168z"/>
    <path fill-rule="evenodd" d="M26.01543492 20.00000674c-9.3e-7 1.65574508-1.34425661 2.99999925-3.00000169 2.99999832l-18.01543491-.00001012C3.34425324 22.99999401 1.99999907 21.65573833 2 19.99999326c9.3e-7-1.65574508 1.34425661-2.99999925 3.00000168-2.99999832l18.01543492.00001012c1.65574508 9.3e-7 2.99999925 1.34425661 2.99999832 3.00000168z"/>
    <path fill-rule="evenodd" d="M38.01543492 7.00001011c-9.3e-7 1.65574508-1.34425661 2.99999925-3.00000169 2.99999832L4.99999832 9.99999157C3.34425324 9.99999064 1.99999907 8.65573496 2 6.9999899c9.3e-7-1.65574508 1.34425661-2.99999925 3.00000168-2.99999832l30.01543492.00001686c1.65574508 9.3e-7 2.99999925 1.34425661 2.99999832 3.00000168z"/>
  </symbol>


  <!-- search -->
  <symbol id="icon-search" viewBox="0 0 40 40">
    <path fill-rule="evenodd" d="M22.3333349 22.33330673c1.83972221-1.83971497 4.82695837-1.8397091 6.66667334.0000131l7.66669411 7.66672426c1.83971497 1.8397222 1.8397091 4.82695836-.0000131 6.66667333-1.83972221 1.83971497-4.82695837 1.8397091-6.66667334-.0000131l-7.66669411-7.66672426c-1.83971497-1.8397222-1.8397091-4.82695836.0000131-6.66667333z"/>
    <path fill-rule="evenodd" d="M31.5 16.5c0-7.72681046-6.27319336-14-14-14s-14 6.27318954-14 14 6.27319336 14 14 14 14-6.27318954 14-14zm-7.5 0c0-3.58744812-2.91255188-6.5-6.5-6.5S11 12.91255188 11 16.5s2.91255188 6.5 6.5 6.5 6.5-2.91255188 6.5-6.5z"/>
  </symbol>


  <!-- settings -->
  <symbol id="icon-settings" viewBox="0 0 40 40">
    <path fill-rule="evenodd" d="M7 22h6.00000462v13.0000177c0 1.65574634-1.34425597 3.0000023-3.00000231 3.0000023C8.34425596 38.00002 7 36.65576404 7 35.0000177V22z"/>
    <path fill-rule="evenodd" d="M10.0000023 2c1.65574635 0 3.00000232 1.34425596 3.00000232 3.0000023V10H7V5.0000023C7 3.34425597 8.34425596 2 10.0000023 2z"/>
    <path fill-rule="evenodd" d="M27.00001538 32H33.00002v3.0000177c0 1.65574634-1.34425596 3.0000023-3.0000023 3.0000023-1.65574635 0-3.00000232-1.34425596-3.00000232-3.0000023V32z"/>
    <path fill-rule="evenodd" d="M30.0000177 2C31.65576403 2 33.00002 3.34425596 33.00002 5.0000023V20h-6.00000462V5.0000023C27.00001538 3.34425597 28.34427135 2 30.0000177 2z"/>
    <path fill-rule="evenodd" d="M18.00002133 16.00001067C18.00002133 11.58468427 14.41532688 8 10.00001067 8 5.58469445 8 2 11.58468428 2 16.00001067c0 4.41532639 3.58469445 8.00001066 8.00001067 8.00001066 4.41531621 0 8.00001066-3.58468427 8.00001066-8.00001066zm-3.5555603 0c0-2.45295873-1.99148485-4.44445037-4.44445036-4.44445037-2.45296551 0-4.44445037 1.99149164-4.44445037 4.44445037s1.99148486 4.44445037 4.44445037 4.44445037c2.4529655 0 4.44445037-1.99149164 4.44445037-4.44445037z"/>
    <path fill-rule="evenodd" d="M38 26c0-4.4153204-3.58468628-8-8-8s-8 3.5846796-8 8c0 4.41531944 3.58468628 8 8 8s8-3.58468056 8-8zm-3.55557251 0c0-2.4529562-1.9914856-4.44444466-4.44442749-4.44444466-2.45297241 0-4.444458 1.99148846-4.444458 4.44444466 0 2.45295525 1.99148559 4.44444275 4.444458 4.44444275 2.4529419 0 4.44442749-1.9914875 4.44442749-4.44444275z"/>
  </symbol>



  <!-- warning -->
  <symbol id="icon-warning" viewBox="0 0 40 40">
    <path  fill-rule="evenodd" d="M20 4.5l-18 33h36.5L20 4.5zM23 17c0-1.65574455-1.3442688-3-3-3s-3 1.34425545-3 3v7c0 1.65574646 1.3442688 3 3 3s3-1.34425354 3-3v-7zm-3 12c1.6557312 0 3 1.34425545 3 3 0 1.65574646-1.3442688 3-3 3s-3-1.34425354-3-3c0-1.65574455 1.3442688-3 3-3z"/>
  </symbol>

  <!-- plus -->
  <symbol id="icon-plus" viewBox="0 0 40 40">
    <path fill-rule="evenodd" d="M38.1381134 19.78512492c-.00000146 2.60175498-2.1122976 4.71404873-4.71405257 4.71404727l-26.58733507-.00001493c-2.60175498-.00000146-4.71404874-2.1122976-4.71404728-4.71405257.00000146-2.60175498 2.1122976-4.71404873 4.71405257-4.71404727l26.58733508.00001493c2.60175497.00000146 4.71404873 2.1122976 4.71404727 4.71405257z"/>
    <path fill-rule="evenodd" d="M19.71404992 2c2.60175498 0 4.71404992 2.11229494 4.71404992 4.71404992v26.57190016C24.42809984 35.88770506 22.3158049 38 19.71404992 38S15 35.88770506 15 33.28595008V6.71404992C15 4.11229494 17.11229494 2 19.71404992 2z"/>
  </symbol>


</svg>
