<svg xmlns="http://www.w3.org/2000/svg" width="40" height="40" viewBox="0 0 40 40">
  <g>
    <rect width="40" height="40" x="0" y="0" fill="rgb(200,200,200)"/>
    <path fill="rgb(0,0,0)" fill-rule="evenodd" d="M7 22h6.00000462v13.0000177c0 1.65574634-1.34425597 3.0000023-3.00000231 3.0000023C8.34425596 38.00002 7 36.65576404 7 35.0000177V22z"/>
    <path fill="rgb(0,0,0)" fill-rule="evenodd" d="M10.0000023 2c1.65574635 0 3.00000232 1.34425596 3.00000232 3.0000023V10H7V5.0000023C7 3.34425597 8.34425596 2 10.0000023 2z"/>
    <path fill="rgb(0,0,0)" fill-rule="evenodd" d="M27.00001538 32H33.00002v3.0000177c0 1.65574634-1.34425596 3.0000023-3.0000023 3.0000023-1.65574635 0-3.00000232-1.34425596-3.00000232-3.0000023V32z"/>
    <path fill="rgb(0,0,0)" fill-rule="evenodd" d="M30.0000177 2C31.65576403 2 33.00002 3.34425596 33.00002 5.0000023V20h-6.00000462V5.0000023C27.00001538 3.34425597 28.34427135 2 30.0000177 2z"/>
    <path fill="rgb(0,0,0)" fill-rule="evenodd" d="M18.00002133 16.00001067C18.00002133 11.58468427 14.41532688 8 10.00001067 8 5.58469445 8 2 11.58468428 2 16.00001067c0 4.41532639 3.58469445 8.00001066 8.00001067 8.00001066 4.41531621 0 8.00001066-3.58468427 8.00001066-8.00001066zm-3.5555603 0c0-2.45295873-1.99148485-4.44445037-4.44445036-4.44445037-2.45296551 0-4.44445037 1.99149164-4.44445037 4.44445037s1.99148486 4.44445037 4.44445037 4.44445037c2.4529655 0 4.44445037-1.99149164 4.44445037-4.44445037z"/>
    <path fill="rgb(0,0,0)" fill-rule="evenodd" d="M38 26c0-4.4153204-3.58468628-8-8-8s-8 3.5846796-8 8c0 4.41531944 3.58468628 8 8 8s8-3.58468056 8-8zm-3.55557251 0c0-2.4529562-1.9914856-4.44444466-4.44442749-4.44444466-2.45297241 0-4.444458 1.99148846-4.444458 4.44444466 0 2.45295525 1.99148559 4.44444275 4.444458 4.44444275 2.4529419 0 4.44442749-1.9914875 4.44442749-4.44444275z"/>
  </g>
</svg>
